{"accessors":[{"bufferView":0,"byteOffset":0,"componentType":5126,"count":90,"max":[0.019100000000000002,0.005,0.019100000000000002],"min":[-0.019100000000000002,0.0,-0.019100000000000002],"type":"VEC3"},{"bufferView":0,"byteOffset":1080,"componentType":5126,"count":87,"max":[0.019100000000000002,0.0,0.019100000000000002],"min":[-0.019100000000000002,0.0,-0.019100000000000002],"type":"VEC3"},{"bufferView":0,"byteOffset":2124,"componentType":5126,"count":90,"max":[0.019100000000000002,0.068,0.019100000000000016],"min":[-0.019100000000000002,0.005,-0.019100000000000002],"type":"VEC3"},{"bufferView":0,"byteOffset":3204,"componentType":5126,"count":43,"max":[0.018000000000000002,0.0,0.017987991270664305],"min":[-0.017951981105943933,0.0,-0.01798799127066431],"type":"VEC3"},{"bufferView":0,"byteOffset":3720,"componentType":5126,"count":90,"max":[0.019100000000000002,0.074,0.019100000000000016],"min":[-0.019100000000000002,0.068,-0.019100000000000002],"type":"VEC3"},{"bufferView":0,"byteOffset":4800,"componentType":5126,"count":87,"max":[0.019100000000000002,0.074,0.019100000000000002],"min":[-0.019100000000000002,0.074,-0.019100000000000002],"type":"VEC3"},{"bufferView":0,"byteOffset":5844,"componentType":5126,"count":43,"max":[0.018000000000000002,0.074,0.017987991270664305],"min":[-0.017951981105943933,0.074,-0.01798799127066431],"type":"VEC3"},{"bufferView":0,"byteOffset":6360,"componentType":5126,"count":88,"max":[0.018000000000000013,0.068,0.017987991270664336],"min":[-0.017951981105943943,0.005,-0.017987991270664305],"type":"VEC3"},{"bufferView":0,"byteOffset":7416,"componentType":5126,"count":304,"max":[0.018000000000000013,0.0724,0.017987991270664336],"min":[-0.017951981105943943,0.068,-0.017987991270664302],"type":"VEC3"},{"bufferView":0,"byteOffset":11064,"componentType":5126,"count":43,"max":[0.018000000000000002,0.005,0.01798799127066431],"min":[-0.017951981105943933,0.005,-0.017987991270664305],"type":"VEC3"},{"bufferView":1,"byteOffset":0,"componentType":5126,"count":90,"type":"VEC3"},{"bufferView":1,"byteOffset":1080,"componentType":5126,"count":87,"type":"VEC3"},{"bufferView":1,"byteOffset":2124,"componentType":5126,"count":90,"type":"VEC3"},{"bufferView":1,"byteOffset":3204,"componentType":5126,"count":43,"type":"VEC3"},{"bufferView":1,"byteOffset":3720,"componentType":5126,"count":90,"type":"VEC3"},{"bufferView":1,"byteOffset":4800,"componentType":5126,"count":87,"type":"VEC3"},{"bufferView":1,"byteOffset":5844,"componentType":5126,"count":43,"type":"VEC3"},{"bufferView":1,"byteOffset":6360,"componentType":5126,"count":88,"type":"VEC3"},{"bufferView":1,"byteOffset":7416,"componentType":5126,"count":304,"type":"VEC3"},{"bufferView":1,"byteOffset":11064,"componentType":5126,"count":43,"type":"VEC3"},{"bufferView":2,"byteOffset":0,"componentType":5123,"count":264,"type":"SCALAR"},{"bufferView":2,"byteOffset":528,"componentType":5123,"count":261,"type":"SCALAR"},{"bufferView":2,"byteOffset":1052,"componentType":5123,"count":264,"type":"SCALAR"},{"bufferView":2,"byteOffset":1580,"componentType":5123,"count":123,"type":"SCALAR"},{"bufferView":2,"byteOffset":1828,"componentType":5123,"count":264,"type":"SCALAR"},{"bufferView":2,"byteOffset":2356,"componentType":5123,"count":261,"type":"SCALAR"},{"bufferView":2,"byteOffset":2880,"componentType":5123,"count":123,"type":"SCALAR"},{"bufferView":2,"byteOffset":3128,"componentType":5123,"count":258,"type":"SCALAR"},{"bufferView":2,"byteOffset":3644,"componentType":5123,"count":1656,"type":"SCALAR"},{"bufferView":2,"byteOffset":6956,"componentType":5123,"count":123,"type":"SCALAR"}],"asset":{"generator":"Open CASCADE Technology 7.8 [dev.opencascade.org]","version":"2.0"},"bufferViews":[{"buffer":0,"byteLength":11580,"byteOffset":0,"byteStride":12,"target":34962},{"buffer":0,"byteLength":11580,"byteOffset":11580,"byteStride":12,"target":34962},{"buffer":0,"byteLength":7204,"byteOffset":23160,"target":34963}],"buffers":[{"byteLength":30364,"uri":"GlassEnvelope.bin"}],"materials":[{"name":"mat_0","pbrMetallicRoughness":{"baseColorFactor":[0.4019778072834015,1.0,1.0,0.30000001192092896],"metallicFactor":0.0},"doubleSided":true,"alphaMode":"BLEND"}],"meshes":[{"name":"Revolution","primitives":[{"attributes":{"NORMAL":10,"POSITION":0},"indices":20,"material":0,"mode":4},{"attributes":{"NORMAL":11,"POSITION":1},"indices":21,"material":0,"mode":4},{"attributes":{"NORMAL":12,"POSITION":2},"indices":22,"material":0,"mode":4},{"attributes":{"NORMAL":13,"POSITION":3},"indices":23,"material":0,"mode":4},{"attributes":{"NORMAL":14,"POSITION":4},"indices":24,"material":0,"mode":4},{"attributes":{"NORMAL":15,"POSITION":5},"indices":25,"material":0,"mode":4},{"attributes":{"NORMAL":16,"POSITION":6},"indices":26,"material":0,"mode":4},{"attributes":{"NORMAL":17,"POSITION":7},"indices":27,"material":0,"mode":4},{"attributes":{"NORMAL":18,"POSITION":8},"indices":28,"material":0,"mode":4},{"attributes":{"NORMAL":19,"POSITION":9},"indices":29,"material":0,"mode":4}]}],"nodes":[{"mesh":0,"name":"Revolution"}],"scene":0,"scenes":[{"nodes":[0]}]}